# xmcd
#
# Track frame offsets: 
#        150
#        9450
#        20577
#        27855
#        37780
#        44050
#        57577
#        67227
#        75272
#        83260
#        93912
#        106287
#
# Disc length: 1543 seconds
#
# Revision: 0
# Processed by: cddbd v1.5.2PL0 Copyright (c) Steve Scherf et al.
# Submitted via: ExactAudioCopyFreeDBPlugin 1.0
#
DISCID=8806050c
DTITLE=The Desperados - On The Rampage
DYEAR=2012
DGENRE=Rockabilly
TTITLE0=Let's Have Some Fun
TTITLE1=I'm Going Insane
TTITLE2=Get Real Gone
TTITLE3=Let's Get Wild
TTITLE4=Make You Scream
TTITLE5=Messing With My Mind
TTITLE6=Evil Ways
TTITLE7=Red Monkey
TTITLE8=Forbidden Love
TTITLE9=Why Did You Make Me Mad
TTITLE10=Go Your Way (And I'll Go Mine)
TTITLE11=This Is The End
EXTD=
EXTT0=
EXTT1=
EXTT2=
EXTT3=
EXTT4=
EXTT5=
EXTT6=
EXTT7=
EXTT8=
EXTT9=
EXTT10=
EXTT11=
PLAYORDER=
